<?xml version="1.0" encoding="UTF-8"?> <!-- Generator: Adobe Illustrator 27.4.0, SVG Export Plug-In . SVG Version: 6.00 Build 0) --> <svg xmlns="http://www.w3.org/2000/svg" xmlns:xlink="http://www.w3.org/1999/xlink" version="1.1" id="Layer_1" x="0px" y="0px" viewBox="0 0 427.6 104" style="enable-background:new 0 0 427.6 104;" xml:space="preserve"> <style type="text/css"> .st0{fill:#808080;} .st1{fill:#325C93;} </style> <g> <g> <path class="st0" d="M108,89.5c0-0.2,0.1-0.3,0.3-0.3h4.1c3.5,0,6.4,2.9,6.4,6.4c0,3.5-2.9,6.4-6.4,6.4h-4.1 c-0.2,0-0.3-0.2-0.3-0.3V89.5z M112.2,100.7c3,0,5.1-2.1,5.1-5.1c0-3-2.1-5.1-5.1-5.1h-2.9v10.3H112.2z"></path> <path class="st0" d="M125.2,89.5c0-0.2,0.2-0.3,0.3-0.3h0.7c0.2,0,0.3,0.2,0.3,0.3v12.1c0,0.2-0.2,0.3-0.3,0.3h-0.7 c-0.2,0-0.3-0.2-0.3-0.3V89.5z"></path> <path class="st0" d="M132.1,101.5l5.6-12.3c0.1-0.1,0.1-0.2,0.3-0.2h0.2c0.2,0,0.3,0.1,0.3,0.2l5.5,12.3c0.1,0.2,0,0.5-0.3,0.5 h-0.7c-0.2,0-0.3-0.1-0.3-0.2l-1.4-3h-6.5l-1.3,3c0,0.1-0.1,0.2-0.3,0.2h-0.7C132.2,102,132,101.7,132.1,101.5z M140.8,97.6 c-0.9-2-1.8-4-2.7-6H138l-2.7,6H140.8z"></path> <path class="st0" d="M155.1,89c1.8,0,3.2,0.6,4.4,1.7c0.1,0.1,0.2,0.4,0,0.5c-0.2,0.2-0.4,0.3-0.5,0.5c-0.2,0.2-0.3,0.2-0.5,0 c-0.9-0.8-2.2-1.4-3.5-1.4c-2.9,0-5.1,2.4-5.1,5.2c0,2.8,2.2,5.3,5.1,5.3c2,0,3.3-0.8,3.3-0.8v-2.6h-2.1c-0.2,0-0.3-0.1-0.3-0.3 v-0.7c0-0.2,0.1-0.3,0.3-0.3h3.2c0.2,0,0.3,0.2,0.3,0.3v4.2c0,0.1-0.1,0.2-0.1,0.3c0,0-1.9,1.2-4.5,1.2c-3.7,0-6.6-2.9-6.6-6.6 S151.4,89,155.1,89z"></path> <path class="st0" d="M166.4,89.3c0-0.2,0.2-0.3,0.3-0.3h0.3c0.1,0,0.2,0,0.3,0.1l8.1,10.1c0,0,0,0,0,0v-9.7c0-0.2,0.1-0.3,0.3-0.3 h0.6c0.2,0,0.3,0.2,0.3,0.3v12.3c0,0.2-0.2,0.3-0.3,0.3h-0.1c-0.1,0-0.2,0-0.3-0.1l-8.3-10.3h0v9.9c0,0.2-0.1,0.3-0.3,0.3h-0.6 c-0.2,0-0.3-0.2-0.3-0.3V89.3z"></path> <path class="st0" d="M189.7,89c3.7,0,6.6,2.9,6.6,6.6s-2.9,6.6-6.6,6.6c-3.7,0-6.6-2.9-6.6-6.6S186,89,189.7,89z M189.7,100.9 c2.9,0,5.3-2.4,5.3-5.3c0-2.9-2.4-5.3-5.3-5.3c-2.9,0-5.3,2.4-5.3,5.3C184.4,98.5,186.8,100.9,189.7,100.9z M188,87.3 c-0.1-0.1,0-0.3,0.1-0.3l2.7-1.5c0.1-0.1,0.4-0.1,0.5,0.1l0.3,0.7c0.1,0.1,0,0.3-0.1,0.4l-2.9,1.2c-0.3,0.1-0.3,0.1-0.4,0 L188,87.3z"></path> <path class="st0" d="M201.9,100.1l0.3-0.3c0.2-0.2,0.3-0.3,0.6-0.1c0.1,0.1,1.5,1.3,3.1,1.3c1.5,0,2.4-0.9,2.4-2.1 c0-1.3-1.1-2-3.2-2.9c-2-0.9-3.2-1.6-3.2-3.7c0-1.2,1-3.2,3.9-3.2c1.8,0,3.1,0.9,3.1,0.9c0.1,0.1,0.3,0.3,0.1,0.6l-0.2,0.3 c-0.1,0.3-0.3,0.3-0.6,0.1c-0.8-0.5-1.4-0.7-2.4-0.7c-1.9,0-2.5,1.2-2.5,2c0,1.3,0.9,1.9,2.5,2.5c2.5,1,4.1,1.9,4.1,4.1 c0,1.9-1.8,3.4-3.9,3.4c-2.2,0-3.6-1.3-3.9-1.5C201.9,100.5,201.6,100.4,201.9,100.1z"></path> <path class="st0" d="M218.2,90.4H215c-0.2,0-0.3-0.2-0.3-0.3v-0.5c0-0.2,0.1-0.3,0.3-0.3h7.7c0.2,0,0.3,0.2,0.3,0.3v0.5 c0,0.2-0.1,0.3-0.3,0.3h-3.2v11.2c0,0.2-0.2,0.3-0.3,0.3h-0.7c-0.2,0-0.3-0.2-0.3-0.3V90.4z"></path> <path class="st0" d="M229,89.5c0-0.2,0.2-0.3,0.3-0.3h0.7c0.2,0,0.3,0.2,0.3,0.3v12.1c0,0.2-0.2,0.3-0.3,0.3h-0.7 c-0.2,0-0.3-0.2-0.3-0.3V89.5z"></path> <path class="st0" d="M243.4,89c1.8,0,3.2,0.6,4.4,1.7c0.1,0.1,0.2,0.4,0,0.5l-0.5,0.5c-0.1,0.2-0.3,0.2-0.5,0 c-0.9-0.8-2.2-1.4-3.5-1.4c-2.9,0-5.1,2.4-5.1,5.3c0,2.8,2.2,5.2,5.1,5.2c1.6,0,2.5-0.5,3.5-1.4c0.2-0.1,0.3-0.1,0.5,0l0.4,0.4 c0.1,0.1,0.1,0.4,0,0.5c-1.2,1.1-2.7,1.8-4.3,1.8c-3.7,0-6.6-2.9-6.6-6.6S239.7,89,243.4,89z"></path> <path class="st0" d="M259.6,89c3.7,0,6.6,2.9,6.6,6.6s-2.9,6.6-6.6,6.6c-3.7,0-6.6-2.9-6.6-6.6S256,89,259.6,89z M259.6,100.9 c2.9,0,5.3-2.4,5.3-5.3c0-2.9-2.4-5.3-5.3-5.3c-2.9,0-5.3,2.4-5.3,5.3C254.3,98.5,256.7,100.9,259.6,100.9z"></path> <path class="st0" d="M280.6,89.5c0-0.2,0.1-0.3,0.3-0.3h4c2.2,0,4.1,1.8,4.1,4c0,2.3-1.8,4.1-4.1,4.1h-3v4.3 c0,0.2-0.2,0.3-0.3,0.3h-0.7c-0.2,0-0.3-0.2-0.3-0.3V89.5z M284.9,96c1.5,0,2.8-1.1,2.8-2.8c0-1.6-1.3-2.6-2.8-2.6H282V96H284.9z"></path> <path class="st0" d="M300.8,89c3.7,0,6.6,2.9,6.6,6.6s-2.9,6.6-6.6,6.6c-3.7,0-6.6-2.9-6.6-6.6S297.2,89,300.8,89z M300.8,100.9 c2.9,0,5.3-2.4,5.3-5.3c0-2.9-2.4-5.3-5.3-5.3c-2.9,0-5.3,2.4-5.3,5.3C295.5,98.5,297.9,100.9,300.8,100.9z"></path> <path class="st0" d="M313.7,89.5c0-0.2,0.1-0.3,0.3-0.3h4.7c2.2,0,4,1.7,4,3.9c0,1.7-1.1,3.1-2.7,3.7l2.5,4.6 c0.1,0.2,0,0.5-0.3,0.5h-0.9c-0.2,0-0.3-0.1-0.4-0.3l-2.4-4.7h-3.5v4.7c0,0.2-0.2,0.3-0.3,0.3h-0.7c-0.2,0-0.3-0.2-0.3-0.3V89.5z M318.7,95.8c1.4,0,2.6-1.2,2.6-2.7c0-1.4-1.2-2.6-2.6-2.6h-3.5v5.2H318.7z"></path> <path class="st0" d="M337.3,89.5c0-0.2,0.2-0.3,0.3-0.3h0.7c0.2,0,0.3,0.2,0.3,0.3v12.1c0,0.2-0.2,0.3-0.3,0.3h-0.7 c-0.2,0-0.3-0.2-0.3-0.3V89.5z"></path> <path class="st0" d="M347.4,89.3c0-0.1,0.2-0.3,0.3-0.3h0.3c0.1,0,0.3,0.1,0.3,0.2l3.6,10.1c0,0,0.1,0,0.1,0l3.6-10.1 c0-0.1,0.2-0.2,0.3-0.2h0.3c0.1,0,0.3,0.1,0.3,0.3l2.4,12.3c0.1,0.3-0.1,0.4-0.3,0.4h-0.7c-0.1,0-0.3-0.1-0.3-0.3l-1.6-9.4 c0,0-0.1,0-0.1,0l-3.4,9.6c0,0.1-0.2,0.2-0.3,0.2h-0.3c-0.1,0-0.3-0.1-0.3-0.2l-3.4-9.6c0,0-0.1,0-0.1,0l-1.6,9.4 c0,0.1-0.2,0.3-0.3,0.3h-0.7c-0.3,0-0.4-0.2-0.3-0.4L347.4,89.3z"></path> <path class="st0" d="M363.6,101.5l5.6-12.3c0.1-0.1,0.1-0.2,0.3-0.2h0.2c0.2,0,0.3,0.1,0.3,0.2l5.5,12.3c0.1,0.2,0,0.5-0.3,0.5 h-0.7c-0.2,0-0.3-0.1-0.3-0.2l-1.4-3h-6.5l-1.3,3c0,0.1-0.1,0.2-0.3,0.2H364C363.7,102,363.5,101.7,363.6,101.5z M372.3,97.6 c-0.9-2-1.8-4-2.7-6h-0.1l-2.7,6H372.3z"></path> <path class="st0" d="M386.6,89c1.8,0,3.2,0.6,4.4,1.7c0.1,0.1,0.2,0.4,0,0.5c-0.2,0.2-0.4,0.3-0.5,0.5c-0.2,0.2-0.3,0.2-0.5,0 c-0.9-0.8-2.2-1.4-3.5-1.4c-2.9,0-5.1,2.4-5.1,5.2c0,2.8,2.2,5.3,5.1,5.3c2,0,3.3-0.8,3.3-0.8v-2.6h-2.1c-0.2,0-0.3-0.1-0.3-0.3 v-0.7c0-0.2,0.1-0.3,0.3-0.3h3.2c0.2,0,0.3,0.2,0.3,0.3v4.2c0,0.1-0.1,0.2-0.1,0.3c0,0-1.9,1.2-4.5,1.2c-3.7,0-6.6-2.9-6.6-6.6 S383,89,386.6,89z"></path> <path class="st0" d="M397.9,89.5c0-0.2,0.1-0.3,0.3-0.3h7.2c0.2,0,0.3,0.2,0.3,0.3v0.5c0,0.2-0.1,0.3-0.3,0.3h-6.1v4.5h5.2 c0.2,0,0.3,0.2,0.3,0.3v0.5c0,0.2-0.2,0.3-0.3,0.3h-5.2v4.7h6.1c0.2,0,0.3,0.2,0.3,0.3v0.5c0,0.2-0.1,0.3-0.3,0.3h-7.2 c-0.2,0-0.3-0.2-0.3-0.3V89.5z"></path> <path class="st0" d="M413.6,89.3c0-0.1,0.2-0.3,0.3-0.3h0.3c0.1,0,0.3,0.1,0.3,0.2l3.6,10.1c0,0,0.1,0,0.1,0l3.6-10.1 c0-0.1,0.2-0.2,0.3-0.2h0.3c0.1,0,0.3,0.1,0.3,0.3l2.4,12.3c0.1,0.3-0.1,0.4-0.3,0.4H424c-0.1,0-0.3-0.1-0.3-0.3l-1.6-9.4 c0,0-0.1,0-0.1,0l-3.4,9.6c0,0.1-0.2,0.2-0.3,0.2H418c-0.1,0-0.3-0.1-0.3-0.2l-3.4-9.6c0,0-0.1,0-0.1,0l-1.6,9.4 c0,0.1-0.2,0.3-0.3,0.3h-0.7c-0.3,0-0.4-0.2-0.3-0.4L413.6,89.3z"></path> </g> <g> <path class="st1" d="M108,79.9V20.3h11.6v59.6H108z"></path> <path class="st1" d="M188.2,79.9v-39l-18.9,39h-10.8l-18.8-39v39h-10.8V20.3h12.8L164.1,68l22.4-47.6c0,0,2.7,0,4.3,0 c6.8,0,8.3,6.2,8.3,9c0,2.8,0,50.6,0,50.6H188.2z"></path> <path class="st1" d="M248.5,20.3h-12.2l-32.6,59.6h13.3l7.5-13.9h27c0-3.2-0.6-9.4-8.1-9.4h-14.4L242.4,32l25.4,47.9h13.3 L248.5,20.3z"></path> <path class="st1" d="M339.5,79.9c-0.6,0-1.4,0-1.4,0l-0.3-7.3c-0.2,0.9-0.6,1.7-1.2,2.6c-0.6,0.9-1.4,1.7-2.3,2.4 c-1,0.7-2.1,1.3-3.5,1.7c-1.4,0.4-2.8,0.7-4.5,0.7h-25.3c-3.7,0-6.7-0.3-9.1-0.9c-2.4-0.6-4.3-1.7-5.7-3.2 c-1.4-1.5-2.4-3.5-2.9-5.9c-0.5-2.5-0.8-5.6-0.8-9.3v-21c0-3.6,0.3-6.6,0.8-9.1c0.5-2.5,1.5-4.4,2.9-6c1.4-1.5,3.3-2.6,5.7-3.3 c2.4-0.7,5.4-1,9.1-1h30.2c2.2,0,4.1,0.3,5.7,0.9c1.6,0.6,3,1.4,4.2,2.3c1.2,0.9,2.1,1.8,2.8,2.9c0.7,1,1.2,1.9,1.6,2.7l-7.4,7.6 c-0.6-1.2-1.4-2.2-2.5-3.2c-1.1-1-2.8-1.4-5.1-1.4h-29.4c-2.7,0-4.6,0.5-5.5,1.6c-1,1-1.5,3-1.5,6v19.2c0,2.1,0.1,3.7,0.3,4.9 c0.2,1.2,0.6,2.1,1.1,2.8c0.5,0.7,1.3,1.1,2.2,1.3c0.9,0.2,2,0.3,3.4,0.3h27.1c3.3,0,5.6-0.5,6.8-1.4c1.3-0.9,1.9-2.3,1.9-4.2V55 h-22.4v-9.7H348c0,0,0,22.7,0,28.5C348,79.4,343.2,79.9,339.5,79.9z"></path> </g> <path class="st1" d="M49.4,2.7C23.2,2.7,1.9,23.9,1.9,50.1s21.2,47.4,47.4,47.4c26.2,0,47.4-21.2,47.4-47.4S75.6,2.7,49.4,2.7z M21.5,42.8c-0.5-0.8-0.4-2,0.2-3.4c1.5-3.3,5.9-7.8,11.8-11.9c5.7-4,11.3-6.5,14.9-6.9c1.8-0.2,3.1,0.1,3.7,0.9 c1.8,2.6-3.6,9.4-12,15.3C31.6,42.7,23.3,45.4,21.5,42.8z M28.5,61.9c-0.7-1-0.6-2.6,0.3-4.5c2-4.3,7.8-10.4,15.6-15.8 c7.5-5.2,14.9-8.5,19.7-9.1c2.3-0.3,4.1,0.1,4.8,1.2c2.4,3.4-4.7,12.5-15.9,20.3C41.9,61.8,30.9,65.4,28.5,61.9z M66.2,73.5 C52.7,82.9,39.4,87.2,36.6,83c-0.9-1.3-0.7-3.1,0.4-5.4c2.4-5.2,9.4-12.5,18.8-19.1c9-6.3,18-10.3,23.8-11c2.8-0.3,4.9,0.1,5.8,1.4 C88.2,53.1,79.6,64.1,66.2,73.5z"></path> </g> <path class="st1" d="M424.4,30.5c-0.6-2.5-1.6-4.5-3.1-6c-1.4-1.5-3.4-2.6-5.8-3.2c-2.4-0.6-5.4-1-8.9-1h-31.4c-3.6,0-6.6,0.3-9,1 c-2.4,0.6-4.3,1.7-5.7,3.2c-1.4,1.5-2.5,3.5-3,6c-0.6,2.5-0.9,5.5-0.9,9.2v21c0,3.6,0.3,6.7,0.9,9.2c0.6,2.5,1.6,4.5,3,6 c1.4,1.5,3.3,2.6,5.7,3.2c2.4,0.6,5.4,1,9,1h31.4c3.5,0,6.5-0.3,8.9-1c2.4-0.6,4.3-1.7,5.8-3.2c1.4-1.5,2.5-3.5,3.1-6 c0.6-2.5,0.9-5.5,0.9-9.2v-21C425.3,36,425,32.9,424.4,30.5z M413.7,60.6c0,2.9-0.5,4.9-1.5,6c-1,1-2.8,1.6-5.5,1.6h-31.4 c-2.7,0-4.5-0.5-5.5-1.6c-1-1-1.5-3-1.5-6V39.7c0-2.9,0.5-4.9,1.6-6c1-1.1,2.9-1.6,5.5-1.6h31.4c2.6,0,4.4,0.5,5.5,1.6 c1,1.1,1.6,3.1,1.6,6V60.6z"></path> </svg> 